<?xml version="1.0" standalone="no"?>
<!DOCTYPE svg PUBLIC "-//W3C//DTD SVG 20010904//EN"
 "http://www.w3.org/TR/2001/REC-SVG-20010904/DTD/svg10.dtd">
<svg version="1.0" xmlns="http://www.w3.org/2000/svg"
 width="128.000000pt" height="128.000000pt" viewBox="0 0 128.000000 128.000000"
 preserveAspectRatio="xMidYMid meet">
<metadata>
Created by potrace 1.11, written by Peter Selinger 2001-2013
</metadata>
<g transform="translate(0.000000,128.000000) scale(0.100000,-0.100000)"
fill="#000000" stroke="none">
<path d="M510 1191 c-114 -37 -169 -78 -208 -156 -10 -22 -36 -74 -58 -115
-21 -41 -43 -88 -50 -105 -6 -16 -24 -59 -38 -95 -52 -125 -84 -310 -63 -357
6 -13 29 -29 56 -39 25 -10 77 -30 114 -45 38 -16 93 -35 123 -43 65 -17 207
-13 279 7 28 8 56 16 63 18 9 3 25 -26 46 -85 35 -95 58 -123 79 -95 7 9 28
20 47 24 103 22 204 108 241 203 19 49 22 79 24 214 1 124 5 161 16 175 18 21
14 53 -6 53 -7 0 -50 -18 -95 -40 l-82 -41 -44 21 c-80 39 -179 33 -295 -18
-35 -15 -56 -18 -80 -13 -41 9 -103 5 -129 -9 -10 -5 -23 -10 -28 -10 -13 0
-15 174 -2 239 14 77 27 87 108 90 42 1 78 9 97 20 37 21 57 73 43 112 -9 27
-83 110 -96 108 -4 0 -32 -8 -62 -18z"/>
</g>
</svg>
